# xmcd
#
# Track frame offsets:
#	150
#	18928
#	37215
#	55580
#	72013
#	90354
#	111372
#
# Disc length: 1748 seconds
#
# Revision: 1
# Processed by: cddbd v1.4PL0 Copyright (c) Steve Scherf et al.
# Submitted via: audiograbber 1.82.01
#
DISCID=5106d207
DTITLE=Wissam El Amir - Mahsoubi
DYEAR=1900
DGENRE=
TTITLE0=W Mchit Wahdi
TTITLE1=Mechkelti Sahebti
TTITLE2=Mahsoubeh
TTITLE3=Ana Esmi Darwich
TTITLE4=Enta Rouhi
TTITLE5=Marti
TTITLE6=Keefak Ya Bayk
EXTD=
EXTT0=
EXTT1=
EXTT2=
EXTT3=
EXTT4=
EXTT5=
EXTT6=
PLAYORDER=
